<svg width="1000" height="1000" viewBox="0 0 1000 1000" fill="none" xmlns="http://www.w3.org/2000/svg">
<g clip-path="url(#clip0_1106_34)">
<rect width="1000" height="1000" rx="300" fill="white"/>
<g filter="url(#filter0_dddd_1106_34)">
<rect x="112" y="275" width="775" height="450" rx="225" fill="#4A4A4A"/>
</g>
<g filter="url(#filter1_dddd_1106_34)">
<path d="M130 500C130 386.782 221.782 295 335 295H490V705H335C221.782 705 130 613.218 130 500V500Z" fill="#FFFDF4"/>
</g>
<g filter="url(#filter2_dddd_1106_34)">
<path d="M867 490H507V295H672C779.696 295 867 382.304 867 490V490Z" fill="#F35A29"/>
</g>
<g filter="url(#filter3_dddd_1106_34)">
<path d="M867 510C867 617.696 779.696 705 672 705H507V510H867V510Z" fill="#FFBB7C"/>
</g>
<g filter="url(#filter4_dddd_1106_34)">
<path d="M523.602 561V460.266H539.464V477.364H542.348C544.545 472.557 548.253 468.231 553.472 464.386C558.828 460.403 566.656 458.412 576.956 458.412C584.509 458.412 591.239 459.991 597.144 463.15C603.187 466.309 607.993 470.978 611.564 477.158C615.135 483.338 616.92 490.96 616.92 500.024V561H600.646V501.26C600.646 491.235 598.105 483.956 593.024 479.424C588.08 474.892 581.351 472.626 572.836 472.626C563.085 472.626 555.12 475.785 548.94 482.102C542.897 488.419 539.876 497.827 539.876 510.324V561H523.602ZM684.201 561C678.433 561 673.97 559.421 670.811 556.262C667.79 553.103 666.279 548.777 666.279 543.284V474.48H635.997V460.266H666.279V424.422H682.553V460.266H715.513V474.48H682.553V540.812C682.553 544.932 684.545 546.992 688.527 546.992H710.981V561H684.201ZM784.808 563.884C774.646 563.884 765.65 561.755 757.822 557.498C750.132 553.241 744.089 547.267 739.694 539.576C735.437 531.748 733.308 522.547 733.308 511.972V509.294C733.308 498.857 735.437 489.724 739.694 481.896C744.089 474.068 750.132 468.025 757.822 463.768C765.65 459.511 774.646 457.382 784.808 457.382C794.971 457.382 803.898 459.511 811.588 463.768C819.416 468.025 825.459 474.068 829.716 481.896C834.111 489.724 836.308 498.857 836.308 509.294V511.972C836.308 522.547 834.111 531.748 829.716 539.576C825.459 547.267 819.416 553.241 811.588 557.498C803.898 561.755 794.971 563.884 784.808 563.884ZM784.808 549.258C795.52 549.258 804.035 545.893 810.352 539.164C816.807 532.297 820.034 523.096 820.034 511.56V509.706C820.034 498.17 816.807 489.037 810.352 482.308C804.035 475.441 795.52 472.008 784.808 472.008C774.234 472.008 765.719 475.441 759.264 482.308C752.81 489.037 749.582 498.17 749.582 509.706V511.56C749.582 523.096 752.81 532.297 759.264 539.164C765.719 545.893 774.234 549.258 784.808 549.258Z" fill="#FFFDF4"/>
</g>
<g filter="url(#filter5_dddd_1106_34)">
<path d="M239.63 561V545.55H259.818V432.25H239.63V416.8H311.936C320.314 416.8 327.73 418.311 334.184 421.332C340.776 424.353 345.858 428.611 349.428 434.104C353.136 439.46 354.99 445.777 354.99 453.056V454.704C354.99 461.433 353.686 466.995 351.076 471.39C348.467 475.647 345.377 479.012 341.806 481.484C338.236 483.819 334.734 485.535 331.3 486.634V489.518C334.734 490.342 338.304 491.99 342.012 494.462C345.72 496.797 348.81 500.161 351.282 504.556C353.892 508.951 355.196 514.513 355.196 521.242V523.302C355.196 531.13 353.274 537.928 349.428 543.696C345.72 549.327 340.57 553.653 333.978 556.674C327.524 559.558 320.108 561 311.73 561H239.63ZM277.122 545.344H309.876C318.94 545.344 325.876 543.215 330.682 538.958C335.489 534.701 337.892 528.933 337.892 521.654V519.8C337.892 512.521 335.489 506.753 330.682 502.496C325.876 498.239 318.94 496.11 309.876 496.11H277.122V545.344ZM277.122 480.454H310.494C318.734 480.454 325.326 478.394 330.27 474.274C335.214 470.017 337.686 464.455 337.686 457.588V455.528C337.686 448.524 335.214 442.962 330.27 438.842C325.464 434.585 318.872 432.456 310.494 432.456H277.122V480.454ZM429.384 563.884C419.221 563.884 410.294 561.755 402.604 557.498C394.913 553.103 388.939 546.992 384.682 539.164C380.424 531.336 378.296 522.272 378.296 511.972V509.5C378.296 499.063 380.424 489.93 384.682 482.102C388.939 474.274 394.844 468.231 402.398 463.974C409.951 459.579 418.603 457.382 428.354 457.382C437.83 457.382 446.207 459.442 453.486 463.562C460.764 467.545 466.464 473.313 470.584 480.866C474.704 488.419 476.764 497.277 476.764 507.44V514.856H394.57C394.982 525.705 398.484 534.22 405.076 540.4C411.668 546.443 419.908 549.464 429.796 549.464C438.448 549.464 445.108 547.473 449.778 543.49C454.447 539.507 458.018 534.769 460.49 529.276L474.498 536.074C472.438 540.331 469.554 544.589 465.846 548.846C462.275 553.103 457.537 556.674 451.632 559.558C445.864 562.442 438.448 563.884 429.384 563.884ZM394.776 501.466H460.284C459.734 492.127 456.507 484.849 450.602 479.63C444.834 474.411 437.418 471.802 428.354 471.802C419.152 471.802 411.599 474.411 405.694 479.63C399.788 484.849 396.149 492.127 394.776 501.466Z" fill="#F35A29"/>
</g>
</g>
<defs>
<filter id="filter0_dddd_1106_34" x="101" y="264" width="911" height="586" filterUnits="userSpaceOnUse" color-interpolation-filters="sRGB">
<feFlood flood-opacity="0" result="BackgroundImageFix"/>
<feColorMatrix in="SourceAlpha" type="matrix" values="0 0 0 0 0 0 0 0 0 0 0 0 0 0 0 0 0 0 127 0" result="hardAlpha"/>
<feOffset dx="5" dy="5"/>
<feGaussianBlur stdDeviation="8"/>
<feColorMatrix type="matrix" values="0 0 0 0 0 0 0 0 0 0 0 0 0 0 0 0 0 0 0.2 0"/>
<feBlend mode="normal" in2="BackgroundImageFix" result="effect1_dropShadow_1106_34"/>
<feColorMatrix in="SourceAlpha" type="matrix" values="0 0 0 0 0 0 0 0 0 0 0 0 0 0 0 0 0 0 127 0" result="hardAlpha"/>
<feOffset dx="20" dy="20"/>
<feGaussianBlur stdDeviation="14"/>
<feColorMatrix type="matrix" values="0 0 0 0 0 0 0 0 0 0 0 0 0 0 0 0 0 0 0.17 0"/>
<feBlend mode="normal" in2="effect1_dropShadow_1106_34" result="effect2_dropShadow_1106_34"/>
<feColorMatrix in="SourceAlpha" type="matrix" values="0 0 0 0 0 0 0 0 0 0 0 0 0 0 0 0 0 0 127 0" result="hardAlpha"/>
<feOffset dx="45" dy="45"/>
<feGaussianBlur stdDeviation="19"/>
<feColorMatrix type="matrix" values="0 0 0 0 0 0 0 0 0 0 0 0 0 0 0 0 0 0 0.1 0"/>
<feBlend mode="normal" in2="effect2_dropShadow_1106_34" result="effect3_dropShadow_1106_34"/>
<feColorMatrix in="SourceAlpha" type="matrix" values="0 0 0 0 0 0 0 0 0 0 0 0 0 0 0 0 0 0 127 0" result="hardAlpha"/>
<feOffset dx="80" dy="80"/>
<feGaussianBlur stdDeviation="22.5"/>
<feColorMatrix type="matrix" values="0 0 0 0 0 0 0 0 0 0 0 0 0 0 0 0 0 0 0.03 0"/>
<feBlend mode="normal" in2="effect3_dropShadow_1106_34" result="effect4_dropShadow_1106_34"/>
<feBlend mode="normal" in="SourceGraphic" in2="effect4_dropShadow_1106_34" result="shape"/>
</filter>
<filter id="filter1_dddd_1106_34" x="108" y="273" width="648" height="698" filterUnits="userSpaceOnUse" color-interpolation-filters="sRGB">
<feFlood flood-opacity="0" result="BackgroundImageFix"/>
<feColorMatrix in="SourceAlpha" type="matrix" values="0 0 0 0 0 0 0 0 0 0 0 0 0 0 0 0 0 0 127 0" result="hardAlpha"/>
<feOffset dx="11" dy="11"/>
<feGaussianBlur stdDeviation="16.5"/>
<feColorMatrix type="matrix" values="0 0 0 0 0 0 0 0 0 0 0 0 0 0 0 0 0 0 0.05 0"/>
<feBlend mode="normal" in2="BackgroundImageFix" result="effect1_dropShadow_1106_34"/>
<feColorMatrix in="SourceAlpha" type="matrix" values="0 0 0 0 0 0 0 0 0 0 0 0 0 0 0 0 0 0 127 0" result="hardAlpha"/>
<feOffset dx="43" dy="43"/>
<feGaussianBlur stdDeviation="30"/>
<feColorMatrix type="matrix" values="0 0 0 0 0 0 0 0 0 0 0 0 0 0 0 0 0 0 0.04 0"/>
<feBlend mode="normal" in2="effect1_dropShadow_1106_34" result="effect2_dropShadow_1106_34"/>
<feColorMatrix in="SourceAlpha" type="matrix" values="0 0 0 0 0 0 0 0 0 0 0 0 0 0 0 0 0 0 127 0" result="hardAlpha"/>
<feOffset dx="96" dy="96"/>
<feGaussianBlur stdDeviation="40.5"/>
<feColorMatrix type="matrix" values="0 0 0 0 0 0 0 0 0 0 0 0 0 0 0 0 0 0 0.03 0"/>
<feBlend mode="normal" in2="effect2_dropShadow_1106_34" result="effect3_dropShadow_1106_34"/>
<feColorMatrix in="SourceAlpha" type="matrix" values="0 0 0 0 0 0 0 0 0 0 0 0 0 0 0 0 0 0 127 0" result="hardAlpha"/>
<feOffset dx="170" dy="170"/>
<feGaussianBlur stdDeviation="48"/>
<feColorMatrix type="matrix" values="0 0 0 0 0 0 0 0 0 0 0 0 0 0 0 0 0 0 0.01 0"/>
<feBlend mode="normal" in2="effect3_dropShadow_1106_34" result="effect4_dropShadow_1106_34"/>
<feBlend mode="normal" in="SourceGraphic" in2="effect4_dropShadow_1106_34" result="shape"/>
</filter>
<filter id="filter2_dddd_1106_34" x="485" y="273" width="648" height="483" filterUnits="userSpaceOnUse" color-interpolation-filters="sRGB">
<feFlood flood-opacity="0" result="BackgroundImageFix"/>
<feColorMatrix in="SourceAlpha" type="matrix" values="0 0 0 0 0 0 0 0 0 0 0 0 0 0 0 0 0 0 127 0" result="hardAlpha"/>
<feOffset dx="11" dy="11"/>
<feGaussianBlur stdDeviation="16.5"/>
<feColorMatrix type="matrix" values="0 0 0 0 0 0 0 0 0 0 0 0 0 0 0 0 0 0 0.05 0"/>
<feBlend mode="normal" in2="BackgroundImageFix" result="effect1_dropShadow_1106_34"/>
<feColorMatrix in="SourceAlpha" type="matrix" values="0 0 0 0 0 0 0 0 0 0 0 0 0 0 0 0 0 0 127 0" result="hardAlpha"/>
<feOffset dx="43" dy="43"/>
<feGaussianBlur stdDeviation="30"/>
<feColorMatrix type="matrix" values="0 0 0 0 0 0 0 0 0 0 0 0 0 0 0 0 0 0 0.04 0"/>
<feBlend mode="normal" in2="effect1_dropShadow_1106_34" result="effect2_dropShadow_1106_34"/>
<feColorMatrix in="SourceAlpha" type="matrix" values="0 0 0 0 0 0 0 0 0 0 0 0 0 0 0 0 0 0 127 0" result="hardAlpha"/>
<feOffset dx="96" dy="96"/>
<feGaussianBlur stdDeviation="40.5"/>
<feColorMatrix type="matrix" values="0 0 0 0 0 0 0 0 0 0 0 0 0 0 0 0 0 0 0.03 0"/>
<feBlend mode="normal" in2="effect2_dropShadow_1106_34" result="effect3_dropShadow_1106_34"/>
<feColorMatrix in="SourceAlpha" type="matrix" values="0 0 0 0 0 0 0 0 0 0 0 0 0 0 0 0 0 0 127 0" result="hardAlpha"/>
<feOffset dx="170" dy="170"/>
<feGaussianBlur stdDeviation="48"/>
<feColorMatrix type="matrix" values="0 0 0 0 0 0 0 0 0 0 0 0 0 0 0 0 0 0 0.01 0"/>
<feBlend mode="normal" in2="effect3_dropShadow_1106_34" result="effect4_dropShadow_1106_34"/>
<feBlend mode="normal" in="SourceGraphic" in2="effect4_dropShadow_1106_34" result="shape"/>
</filter>
<filter id="filter3_dddd_1106_34" x="485" y="488" width="648" height="483" filterUnits="userSpaceOnUse" color-interpolation-filters="sRGB">
<feFlood flood-opacity="0" result="BackgroundImageFix"/>
<feColorMatrix in="SourceAlpha" type="matrix" values="0 0 0 0 0 0 0 0 0 0 0 0 0 0 0 0 0 0 127 0" result="hardAlpha"/>
<feOffset dx="11" dy="11"/>
<feGaussianBlur stdDeviation="16.5"/>
<feColorMatrix type="matrix" values="0 0 0 0 0 0 0 0 0 0 0 0 0 0 0 0 0 0 0.05 0"/>
<feBlend mode="normal" in2="BackgroundImageFix" result="effect1_dropShadow_1106_34"/>
<feColorMatrix in="SourceAlpha" type="matrix" values="0 0 0 0 0 0 0 0 0 0 0 0 0 0 0 0 0 0 127 0" result="hardAlpha"/>
<feOffset dx="43" dy="43"/>
<feGaussianBlur stdDeviation="30"/>
<feColorMatrix type="matrix" values="0 0 0 0 0 0 0 0 0 0 0 0 0 0 0 0 0 0 0.04 0"/>
<feBlend mode="normal" in2="effect1_dropShadow_1106_34" result="effect2_dropShadow_1106_34"/>
<feColorMatrix in="SourceAlpha" type="matrix" values="0 0 0 0 0 0 0 0 0 0 0 0 0 0 0 0 0 0 127 0" result="hardAlpha"/>
<feOffset dx="96" dy="96"/>
<feGaussianBlur stdDeviation="40.5"/>
<feColorMatrix type="matrix" values="0 0 0 0 0 0 0 0 0 0 0 0 0 0 0 0 0 0 0.03 0"/>
<feBlend mode="normal" in2="effect2_dropShadow_1106_34" result="effect3_dropShadow_1106_34"/>
<feColorMatrix in="SourceAlpha" type="matrix" values="0 0 0 0 0 0 0 0 0 0 0 0 0 0 0 0 0 0 127 0" result="hardAlpha"/>
<feOffset dx="170" dy="170"/>
<feGaussianBlur stdDeviation="48"/>
<feColorMatrix type="matrix" values="0 0 0 0 0 0 0 0 0 0 0 0 0 0 0 0 0 0 0.01 0"/>
<feBlend mode="normal" in2="effect3_dropShadow_1106_34" result="effect4_dropShadow_1106_34"/>
<feBlend mode="normal" in="SourceGraphic" in2="effect4_dropShadow_1106_34" result="shape"/>
</filter>
<filter id="filter4_dddd_1106_34" x="517.602" y="418.422" width="379.707" height="206.462" filterUnits="userSpaceOnUse" color-interpolation-filters="sRGB">
<feFlood flood-opacity="0" result="BackgroundImageFix"/>
<feColorMatrix in="SourceAlpha" type="matrix" values="0 0 0 0 0 0 0 0 0 0 0 0 0 0 0 0 0 0 127 0" result="hardAlpha"/>
<feOffset dx="2" dy="2"/>
<feGaussianBlur stdDeviation="4"/>
<feColorMatrix type="matrix" values="0 0 0 0 0 0 0 0 0 0 0 0 0 0 0 0 0 0 0.2 0"/>
<feBlend mode="normal" in2="BackgroundImageFix" result="effect1_dropShadow_1106_34"/>
<feColorMatrix in="SourceAlpha" type="matrix" values="0 0 0 0 0 0 0 0 0 0 0 0 0 0 0 0 0 0 127 0" result="hardAlpha"/>
<feOffset dx="10" dy="10"/>
<feGaussianBlur stdDeviation="7"/>
<feColorMatrix type="matrix" values="0 0 0 0 0 0 0 0 0 0 0 0 0 0 0 0 0 0 0.17 0"/>
<feBlend mode="normal" in2="effect1_dropShadow_1106_34" result="effect2_dropShadow_1106_34"/>
<feColorMatrix in="SourceAlpha" type="matrix" values="0 0 0 0 0 0 0 0 0 0 0 0 0 0 0 0 0 0 127 0" result="hardAlpha"/>
<feOffset dx="22" dy="22"/>
<feGaussianBlur stdDeviation="9"/>
<feColorMatrix type="matrix" values="0 0 0 0 0 0 0 0 0 0 0 0 0 0 0 0 0 0 0.1 0"/>
<feBlend mode="normal" in2="effect2_dropShadow_1106_34" result="effect3_dropShadow_1106_34"/>
<feColorMatrix in="SourceAlpha" type="matrix" values="0 0 0 0 0 0 0 0 0 0 0 0 0 0 0 0 0 0 127 0" result="hardAlpha"/>
<feOffset dx="39" dy="39"/>
<feGaussianBlur stdDeviation="11"/>
<feColorMatrix type="matrix" values="0 0 0 0 0 0 0 0 0 0 0 0 0 0 0 0 0 0 0.03 0"/>
<feBlend mode="normal" in2="effect3_dropShadow_1106_34" result="effect4_dropShadow_1106_34"/>
<feBlend mode="normal" in="SourceGraphic" in2="effect4_dropShadow_1106_34" result="shape"/>
</filter>
<filter id="filter5_dddd_1106_34" x="235.63" y="412.8" width="288.134" height="198.084" filterUnits="userSpaceOnUse" color-interpolation-filters="sRGB">
<feFlood flood-opacity="0" result="BackgroundImageFix"/>
<feColorMatrix in="SourceAlpha" type="matrix" values="0 0 0 0 0 0 0 0 0 0 0 0 0 0 0 0 0 0 127 0" result="hardAlpha"/>
<feOffset dx="2" dy="2"/>
<feGaussianBlur stdDeviation="3"/>
<feColorMatrix type="matrix" values="0 0 0 0 0 0 0 0 0 0 0 0 0 0 0 0 0 0 0.2 0"/>
<feBlend mode="normal" in2="BackgroundImageFix" result="effect1_dropShadow_1106_34"/>
<feColorMatrix in="SourceAlpha" type="matrix" values="0 0 0 0 0 0 0 0 0 0 0 0 0 0 0 0 0 0 127 0" result="hardAlpha"/>
<feOffset dx="8" dy="8"/>
<feGaussianBlur stdDeviation="5.5"/>
<feColorMatrix type="matrix" values="0 0 0 0 0 0 0 0 0 0 0 0 0 0 0 0 0 0 0.17 0"/>
<feBlend mode="normal" in2="effect1_dropShadow_1106_34" result="effect2_dropShadow_1106_34"/>
<feColorMatrix in="SourceAlpha" type="matrix" values="0 0 0 0 0 0 0 0 0 0 0 0 0 0 0 0 0 0 127 0" result="hardAlpha"/>
<feOffset dx="17" dy="17"/>
<feGaussianBlur stdDeviation="7.5"/>
<feColorMatrix type="matrix" values="0 0 0 0 0 0 0 0 0 0 0 0 0 0 0 0 0 0 0.1 0"/>
<feBlend mode="normal" in2="effect2_dropShadow_1106_34" result="effect3_dropShadow_1106_34"/>
<feColorMatrix in="SourceAlpha" type="matrix" values="0 0 0 0 0 0 0 0 0 0 0 0 0 0 0 0 0 0 127 0" result="hardAlpha"/>
<feOffset dx="30" dy="30"/>
<feGaussianBlur stdDeviation="8.5"/>
<feColorMatrix type="matrix" values="0 0 0 0 0 0 0 0 0 0 0 0 0 0 0 0 0 0 0.03 0"/>
<feBlend mode="normal" in2="effect3_dropShadow_1106_34" result="effect4_dropShadow_1106_34"/>
<feBlend mode="normal" in="SourceGraphic" in2="effect4_dropShadow_1106_34" result="shape"/>
</filter>
<clipPath id="clip0_1106_34">
<rect width="1000" height="1000" rx="300" fill="white"/>
</clipPath>
</defs>
</svg>
